# Blender v2.79 (sub 0) OBJ File: 'Bat.blend'
# www.blender.org
mtllib Bat.mtl
o Head_40_750D24BA_c.bmp
v 0.023393 0.656580 0.446268
v -0.088894 0.224220 0.119406
v 0.085724 0.632745 0.206622
v 0.042318 0.364635 0.487607
v 0.088037 0.632745 -0.209588
v -0.087547 0.224220 -0.124332
v 0.047756 0.364635 -0.491064
v 0.028371 0.656580 -0.449915
v 0.064476 0.230355 0.165252
v -0.112098 -0.118230 -0.000720
v -0.136852 -0.014070 0.329121
v 0.195745 0.044190 0.165984
v -0.063384 0.232755 0.194546
v 0.197599 0.044190 -0.167740
v 0.066330 0.230355 -0.168472
v -0.061196 0.232755 -0.199185
v -0.215541 0.230385 -0.095045
v -0.063826 0.352800 0.089542
v -0.216569 0.230385 0.088698
v -0.062811 0.352800 -0.094188
v -0.277091 0.044100 0.159598
v -0.275265 0.044100 -0.166625
v -0.133160 -0.014070 -0.334574
v 0.120558 0.352635 0.000567
v 0.214278 0.179970 -0.092661
v 0.213253 0.179970 0.091080
v 0.082394 0.269423 0.112636
v 0.164641 0.270522 0.043611
v 0.150058 -0.119010 0.101975
v 0.151201 -0.119010 -0.104257
v 0.352371 0.091680 0.001866
v 0.201849 0.078788 -0.148609
v 0.172167 0.080257 -0.167882
v 0.151429 0.077831 -0.173350
v 0.214606 -0.127710 0.031098
v 0.078848 0.258582 -0.129451
v 0.228707 -0.014565 0.057415
v 0.214956 -0.127710 -0.032663
v 0.229351 -0.014565 -0.058820
v 0.143906 0.203936 -0.128721
vt 0.326172 0.689453
vt 0.447266 0.966797
vt 0.416016 0.705078
vt 0.310547 0.878906
vt 0.660156 0.689453
vt 0.570313 0.705078
vt 0.539063 0.966797
vt 0.675781 0.878906
vt 0.373047 0.259766
vt 0.857422 0.281250
vt 0.685547 0.005859
vt 0.536934 0.126608
vt 0.708984 0.224609
vt 0.226563 0.224609
vt 0.466797 0.468750
vt 0.910156 0.572266
vt 0.858895 0.483679
vt 0.025391 0.572266
vt 0.738281 0.998047
vt 0.197266 0.998047
vt 1.082031 0.777344
vt 0.907902 0.137162
vt 0.266205 -0.084500
vt 0.039063 0.083984
vt 0.523438 0.228516
vt 0.785156 0.074219
vt 0.607422 0.248047
vt 0.652344 -0.001953
vt 0.439453 0.240234
vt 0.248047 0.052734
vt 0.376953 -0.013672
vt 0.384058 0.868433
vt 0.115942 0.868433
vt 0.115942 0.600317
vt 0.857422 1.449219
vt -0.710938 -0.320313
vt 0.384058 0.868433
vt 0.115942 0.868433
vt 0.115942 0.600317
vt 0.384058 0.600317
vt 0.384058 0.868433
vt 0.115942 0.868433
vt 0.613281 1.050781
vt 0.611328 0.906250
vt 0.740234 1.052734
vt 0.179688 0.097656
vt 0.696866 0.452000
vt 1.166016 0.773438
vt 0.578015 1.175141
vt 0.338735 1.077138
vt 0.496639 0.011543
vt 0.384058 0.868433
vt 0.115942 0.868433
vt 0.115942 0.600317
vt 0.384058 0.600317
vt -0.593750 -0.310547
vt 0.203776 1.022943
vt 0.501953 0.917969
vt 0.658189 1.030639
vt 0.705078 1.064453
vt 0.384058 0.868433
vt 0.115942 0.600317
vt 0.384058 0.868433
vt 0.115942 0.868433
vt 0.265625 1.060547
vt 0.390625 0.910156
vt 0.392578 1.054688
vt 0.384058 0.868433
vt 0.115942 0.868433
vt 0.384058 0.868433
vt 0.115942 0.868433
vt 0.115942 0.868433
vt 0.115942 0.600317
vt 0.115942 0.868433
vt 0.115942 0.600317
vt 0.115942 0.868433
vt 0.115942 0.600317
vt 0.384058 0.868433
vt 0.115942 0.868433
vt 0.115942 0.600317
vt 0.384058 0.600317
vt 0.384058 0.868433
vt 0.115942 0.868433
vt 0.115942 0.600317
vt 0.384058 0.868433
vt 0.115942 0.868433
vt 0.384058 0.868433
vt 0.115942 0.868433
vt 0.000000 0.000000
vt 1.000000 0.000000
vt 1.000000 1.000000
vt 0.000000 0.000000
vt 1.000000 0.000000
vn 0.9711 -0.2376 -0.0192
vn 0.9771 -0.2012 -0.0695
vn 0.8642 -0.4264 0.2672
vn 0.9403 0.0128 -0.3400
vn 0.9709 -0.2376 0.0300
vn 0.8671 -0.4264 -0.2575
vn 0.9762 -0.2012 0.0804
vn 0.9365 0.0128 0.3504
vn 0.6717 0.5404 0.5067
vn 0.6786 0.5391 -0.4987
vn 0.5144 0.8574 0.0092
vn 0.7462 0.5758 0.3342
vn 0.9942 0.1064 0.0116
vn 0.6062 -0.0607 -0.7930
vn 0.5932 0.3325 -0.7332
vn 0.5937 -0.0604 0.8024
vn 0.4136 -0.8316 -0.3706
vn 0.4093 -0.8318 0.3749
vn 0.4110 0.6593 0.6295
vn 0.3370 0.4623 0.8201
vn -0.3575 -0.9339 0.0000
vn -0.2642 -0.2900 -0.9198
vn -0.2650 -0.2984 0.9169
vn -0.0852 0.5417 0.8362
vn -0.2108 0.8863 0.4122
vn -0.7520 0.5676 -0.3351
vn -0.2037 0.8869 -0.4146
vn -0.0909 0.5332 -0.8411
vn 0.3477 0.4651 -0.8141
vn 0.5239 0.4905 -0.6964
vn 0.3846 0.2677 -0.8834
vn 0.4215 0.6652 -0.6164
vn 0.3036 0.2640 -0.9154
vn -0.9080 -0.1374 -0.3957
vn -0.7563 0.5770 0.3083
vn -0.9179 -0.1536 0.3657
vn 0.9921 -0.1249 0.0054
vn 0.9921 -0.1249 0.0055
usemtl Nose
s 1
f 1/1/1 2/2/2 3/3/3
f 4/4/4 2/2/2 1/1/1
f 8/5/5 5/6/6 6/7/7
f 7/8/8 8/5/5 6/7/7
f 26/9/9 25/10/10 24/11/11 28/12/12
f 25/13/10 26/14/9 31/15/13
f 31/15/13 14/16/14 32/17/15 25/13/10
f 31/15/13 26/14/9 12/18/16
f 31/15/13 30/19/17 14/16/14
f 29/20/18 30/19/17 31/15/13
f 29/20/18 31/15/13 12/18/16
usemtl Eye
f 26/21/9 28/22/12 27/23/19 9/24/20
f 10/25/21 23/26/22 30/27/17
f 14/28/14 30/27/17 23/26/22
f 29/29/18 10/25/21 30/27/17
f 10/25/21 29/29/18 11/30/23
f 12/31/16 11/30/23 29/29/18
f 11/32/23 12/33/16 13/34/24
f 12/35/16 9/24/20 13/36/24
f 24/37/11 18/38/25 9/39/20 27/40/19
f 18/41/25 13/42/24 9/39/20
f 9/24/20 12/35/16 26/21/9
f 17/43/26 20/44/27 16/45/28
f 15/46/29 40/47/30 25/48/10 32/49/15 33/50/31
f 15/46/29 36/51/32 40/47/30
f 23/52/22 16/53/28 34/54/33 14/55/14
f 16/56/28 15/46/29 33/50/31 34/57/33
f 24/58/11 36/59/32 15/60/29 20/44/27
f 15/60/29 16/45/28 20/44/27
f 17/61/26 16/53/28 22/62/34
f 16/63/28 23/64/22 22/62/34
f 13/65/24 18/66/25 19/67/35
f 21/68/36 19/69/35 22/62/34
f 19/70/35 17/71/26 22/62/34
f 20/44/27 17/43/26 18/66/25
f 17/43/26 19/67/35 18/66/25
f 24/58/11 20/44/27 18/66/25
f 21/68/36 22/72/34 10/73/21
f 23/52/22 10/74/21 22/62/34
f 21/68/36 10/74/21 11/75/23
f 21/68/36 11/76/23 19/77/35
f 11/32/23 13/42/24 19/77/35
f 40/78/30 36/79/32 24/80/11 25/81/10
f 34/82/33 33/83/31 14/84/14
f 33/85/31 32/86/15 14/84/14
f 27/87/19 28/88/12 24/80/11
usemtl Tooth
f 35/89/37 38/90/38 37/91/38
f 38/92/38 39/93/38 37/91/38
o Right_Wing_71_640D0B7F_c.bmp
v -0.247419 -0.565875 -0.001943
v -0.117265 -0.565500 -0.987067
v -0.250433 0.431565 -0.001975
v -0.117265 -0.565500 -0.987067
v -0.120279 0.431925 -0.987099
v -0.250433 0.431565 -0.001975
vt 0.000000 0.966797
vt 0.966797 0.966797
vt 0.000000 0.000000
vt 0.966797 0.966797
vt 0.966797 0.000000
vt 0.000000 0.000000
vn 0.9914 0.0030 0.1310
usemtl Wing
s off
f 41/94/39 42/95/39 43/96/39
f 44/97/39 45/98/39 46/99/39
o Body_70_5335491A_c.bmp
v -0.055912 -0.067545 0.222272
v -0.055912 -0.067545 -0.212728
v -0.055911 -0.502545 0.222272
v -0.055912 -0.067545 -0.212728
v -0.055911 -0.502545 -0.212728
v -0.055911 -0.502545 0.222272
vt 0.000000 0.000000
vt 0.966797 0.000000
vt 0.000000 0.966797
vt 0.000000 0.966797
vt 0.966797 0.000000
vt 0.966797 0.966797
vn 1.0000 0.0000 -0.0000
usemtl Body
s off
f 47/100/40 49/101/40 48/102/40
f 50/103/40 52/104/40 51/105/40
o Left_Wing_72_640D0B7F_c.bmp
v -0.111058 -0.566820 0.984585
v -0.248809 -0.569610 0.000445
v -0.111278 0.430620 0.981832
v -0.248809 -0.569610 0.000445
v -0.249028 0.427830 -0.002307
v -0.111278 0.430620 0.981832
vt 0.966797 0.966797
vt 0.000000 0.966797
vt 0.966797 0.000000
vt 0.000000 0.966797
vt 0.000000 0.000000
vt 0.966797 0.000000
vn 0.9903 -0.0002 -0.1386
usemtl Wing
s off
f 53/106/41 54/107/41 55/108/41
f 56/109/41 57/110/41 58/111/41
